name Walk1.mot
datacolumns 19
datarows 20
range 2.47000000 2.56500000
endheader

                time	   L_ground_force_vx	   L_ground_force_vy	   L_ground_force_vz	   L_ground_force_px	   L_ground_force_py	   L_ground_force_pz	   R_ground_force_vx	   R_ground_force_vy	   R_ground_force_vz	   R_ground_force_px	   R_ground_force_py	   R_ground_force_pz	   L_ground_torque_x	   L_ground_torque_y	   L_ground_torque_z	   R_ground_torque_x	   R_ground_torque_y	   R_ground_torque_z	
          2.47000000	          0.00000000	         -0.00000000	         -0.00000000	          0.00000000	          0.00000000	          0.00000000	         27.73330337	        209.34002607	          0.02745474	          0.36693064	          0.00000000	          0.13667091	          0.00000000	         -0.00000000	          0.00000000	          0.00000000	         -6.08719514	          0.00000000	
          2.47500000	          0.00000000	          0.00000000	         -0.00000000	          0.00000000	          0.00000000	          0.00000000	         22.20420454	        175.48337819	          0.90475050	          0.36897394	          0.00000000	          0.13381424	          0.00000000	         -0.00000000	          0.00000000	          0.00000000	         -5.27302780	          0.00000000	
          2.48000000	          0.00000000	          0.00000000	         -0.00000000	          0.00000000	          0.00000000	          0.00000000	         16.82082064	        144.46573124	          1.53484629	          0.36890202	          0.00000000	          0.13005396	          0.00000000	         -0.00000000	          0.00000000	          0.00000000	         -4.44106755	          0.00000000	
          2.48500000	          0.00000000	          0.00000000	         -0.00000000	          0.00000000	          0.00000000	          0.00000000	         11.74428250	        116.63054196	          1.95759315	          0.36574600	          0.00000000	          0.12521472	          0.00000000	         -0.00000000	          0.00000000	          0.00000000	         -3.61643306	          0.00000000	
          2.49000000	          0.00000000	          0.00000000	         -0.00000000	          0.00000000	          0.00000000	          0.00000000	          7.14287373	         92.17316437	          2.20858163	          0.35841350	          0.00000000	          0.11913088	          0.00000000	         -0.00000000	          0.00000000	          0.00000000	         -2.82704434	          0.00000000	
          2.49500000	          0.00000000	          0.00000000	          0.00000000	          0.00000000	          0.00000000	          0.00000000	          3.17448319	         71.12127035	          2.31606450	          0.34578747	          0.00000000	          0.11165722	          0.00000000	         -0.00000000	          0.00000000	          0.00000000	         -2.10059703	          0.00000000	
          2.50000000	          0.00000000	          0.00000000	          0.00000000	         -0.00000000	          0.00000000	         -0.00000000	         -0.03467489	         53.34407052	          2.30052175	          0.32688724	          0.00000000	          0.10268670	          0.00000000	          0.00000000	          0.00000000	          0.00000000	         -1.46070845	          0.00000000	
          2.50500000	          0.00000000	          0.00000000	          0.00000000	         -0.00000000	          0.00000000	         -0.00000000	         -2.40946492	         38.59202524	          2.17748560	          0.30108542	          0.00000000	          0.09219095	          0.00000000	          0.00000000	          0.00000000	          0.00000000	         -0.92428969	          0.00000000	
          2.51000000	          0.00000000	          0.00000000	          0.00000000	         -0.00000000	          0.00000000	         -0.00000000	         -3.94168859	         26.55529477	          1.96484960	          0.26839860	          0.00000000	          0.08027002	          0.00000000	          0.00000000	          0.00000000	          0.00000000	         -0.49968370	          0.00000000	
          2.51500000	          0.00000000	          0.00000000	          0.00000000	         -0.00000000	          0.00000000	         -0.00000000	         -4.70078876	         16.92678313	          1.68844541	          0.22983836	          0.00000000	          0.06725584	          0.00000000	          0.00000000	          0.00000000	          0.00000000	         -0.18472170	          0.00000000	
          2.52000000	          0.00000000	          0.00000000	          0.00000000	         -0.00000000	          0.00000000	         -0.00000000	         -4.83422912	          9.45082971	          1.38065393	          0.18781266	          0.00000000	          0.05382510	          0.00000000	          0.00000000	          0.00000000	          0.00000000	          0.03245056	          0.00000000	
          2.52500000	          0.00000000	          0.00000000	          0.00000000	         -0.00000000	          0.00000000	         -0.00000000	         -4.53805904	          3.91034804	          1.07417254	          0.14604300	          0.00000000	          0.04096438	          0.00000000	          0.00000000	          0.00000000	          0.00000000	          0.16916928	          0.00000000	
          2.53000000	          0.00000000	          0.00000000	          0.00000000	         -0.00000000	          0.00000000	         -0.00000000	         -3.98922531	          0.04808322	          0.79267790	          0.10770669	          0.00000000	          0.02947726	          0.00000000	          0.00000000	          0.00000000	          0.00000000	          0.24346511	          0.00000000	
          2.53500000	         -0.00000000	          0.00000000	          0.00000000	         -0.00000000	          0.00000000	         -0.00000000	         -3.32176938	         -2.43251519	          0.54946961	          0.07460406	          0.00000000	          0.01977950	          0.00000000	          0.00000000	          0.00000000	          0.00000000	          0.27185444	          0.00000000	
          2.54000000	         -0.00000000	          0.00000000	          0.00000000	         -0.00000000	          0.00000000	         -0.00000000	         -2.63103103	         -3.83089235	          0.35004844	          0.04747571	          0.00000000	          0.01199619	          0.00000000	          0.00000000	          0.00000000	          0.00000000	          0.26855957	          0.00000000	
          2.54500000	         -0.00000000	          0.00000000	          0.00000000	         -0.00000000	          0.00000000	         -0.00000000	         -1.97999117	         -4.42466728	          0.19447890	          0.02632406	          0.00000000	          0.00605616	          0.00000000	          0.00000000	          0.00000000	          0.00000000	          0.24520682	          0.00000000	
          2.55000000	         -0.00000000	         -0.00000000	          0.00000000	         -0.00000000	          0.00000000	         -0.00000000	         -1.40589855	         -4.45550595	          0.07933425	          0.01067801	          0.00000000	          0.00176796	          0.00000000	          0.00000000	          0.00000000	          0.00000000	          0.21083825	          0.00000000	
          2.55500000	         -0.00000000	         -0.00000000	          0.00000000	         -0.00000000	          0.00000000	         -0.00000000	         -0.92655450	         -4.12290555	         -0.00078017	         -0.00020000	          0.00000000	         -0.00112181	          0.00000000	          0.00000000	          0.00000000	          0.00000000	          0.17212360	          0.00000000	
          2.56000000	         -0.00000000	         -0.00000000	          0.00000000	         -0.00000000	          0.00000000	         -0.00000000	         -0.54588119	         -3.58354337	         -0.05209429	         -0.00716004	          0.00000000	         -0.00288624	          0.00000000	          0.00000000	          0.00000000	          0.00000000	          0.13368375	          0.00000000	
          2.56500000	         -0.00000000	         -0.00000000	          0.00000000	         -0.00000000	          0.00000000	         -0.00000000	         -0.25859017	         -2.95424591	         -0.08088102	         -0.01105711	          0.00000000	         -0.00378946	          0.00000000	          0.00000000	          0.00000000	          0.00000000	          0.09846025	          0.00000000	
